<?xml version="1.0" encoding="UTF-8"?><!DOCTYPE svg PUBLIC "-//W3C//DTD SVG 1.1//EN" "http://www.w3.org/Graphics/SVG/1.1/DTD/svg11.dtd"><svg xmlns="http://www.w3.org/2000/svg" xmlns:xlink="http://www.w3.org/1999/xlink" version="1.1" id="Layer_1" x="0px" y="0px" width="512px" height="512px" viewBox="0 0 512 512" xml:space="preserve"><path d="M399.3 232.8c0-1.2.2-2.4.2-3.6 0-64.3-52.8-117.2-116.8-117.2-46.1 0-85.8 27.9-104.4 67-8.1-4.1-17.1-6.4-26.8-6.4-29.6 0-54.1 23.7-58.9 52C57.4 236.8 32 268.8 32 308.4c0 49.8 40.1 91.6 89.6 91.6H398c45 0 82-38.9 82-84.3 0-45.6-35.4-82.8-80.7-82.9z"/><metadata><rdf:RDF xmlns:rdf="http://www.w3.org/1999/02/22-rdf-syntax-ns#" xmlns:rdfs="http://www.w3.org/2000/01/rdf-schema#" xmlns:dc="http://purl.org/dc/elements/1.1/"><rdf:Description about="https://iconscout.com/legal#licenses" dc:title="ios,cloud" dc:description="ios,cloud" dc:publisher="Iconscout" dc:date="2017-09-24" dc:format="image/svg+xml" dc:language="en"><dc:creator><rdf:Bag><rdf:li>Benjamin J Sperry</rdf:li></rdf:Bag></dc:creator></rdf:Description></rdf:RDF></metadata></svg>